<mxfile host="app.diagrams.net" modified="2024-03-16T13:05:40.697Z" agent="Mozilla/5.0 (X11; Linux x86_64) AppleWebKit/537.36 (KHTML, like Gecko) Chrome/122.0.0.0 Safari/537.36" etag="f55AjUrjMSdCoFWjImm2" version="24.0.7" type="github">
  <diagram id="C5RBs43oDa-KdzZeNtuy" name="Page-1">
    <mxGraphModel dx="1430" dy="1884" grid="0" gridSize="10" guides="1" tooltips="1" connect="1" arrows="1" fold="1" page="1" pageScale="1" pageWidth="827" pageHeight="1169" math="0" shadow="0">
      <root>
        <mxCell id="WIyWlLk6GJQsqaUBKTNV-0" />
        <mxCell id="WIyWlLk6GJQsqaUBKTNV-1" parent="WIyWlLk6GJQsqaUBKTNV-0" />
        <mxCell id="YWEfIGBVEEXT4g351JtW-2" value="" style="edgeStyle=orthogonalEdgeStyle;rounded=0;orthogonalLoop=1;jettySize=auto;html=1;" edge="1" parent="WIyWlLk6GJQsqaUBKTNV-1" source="YWEfIGBVEEXT4g351JtW-0">
          <mxGeometry relative="1" as="geometry">
            <mxPoint x="120" y="60" as="targetPoint" />
            <Array as="points">
              <mxPoint x="120" y="30" />
            </Array>
          </mxGeometry>
        </mxCell>
        <mxCell id="YWEfIGBVEEXT4g351JtW-0" value="&lt;font style=&quot;font-size: 17px;&quot;&gt;GIT-ACTIONs&lt;/font&gt;&lt;div style=&quot;font-size: 17px;&quot;&gt;&lt;br&gt;&lt;/div&gt;" style="text;html=1;align=center;verticalAlign=middle;whiteSpace=wrap;rounded=0;" vertex="1" parent="WIyWlLk6GJQsqaUBKTNV-1">
          <mxGeometry x="10" y="30" width="60" height="30" as="geometry" />
        </mxCell>
        <mxCell id="YWEfIGBVEEXT4g351JtW-6" style="edgeStyle=orthogonalEdgeStyle;rounded=0;orthogonalLoop=1;jettySize=auto;html=1;exitX=1;exitY=0.5;exitDx=0;exitDy=0;exitPerimeter=0;entryX=0;entryY=0.25;entryDx=0;entryDy=0;" edge="1" parent="WIyWlLk6GJQsqaUBKTNV-1" source="YWEfIGBVEEXT4g351JtW-1" target="YWEfIGBVEEXT4g351JtW-4">
          <mxGeometry relative="1" as="geometry" />
        </mxCell>
        <mxCell id="YWEfIGBVEEXT4g351JtW-1" value="Automate-Worrkflows" style="shape=singleArrow;whiteSpace=wrap;html=1;arrowWidth=0.4;arrowSize=0.4;" vertex="1" parent="WIyWlLk6GJQsqaUBKTNV-1">
          <mxGeometry x="150" y="-20" width="80" height="60" as="geometry" />
        </mxCell>
        <mxCell id="YWEfIGBVEEXT4g351JtW-4" value="MergedCode=&amp;gt;Build=&amp;gt;Test=&amp;gt;Deploy" style="rounded=1;whiteSpace=wrap;html=1;" vertex="1" parent="WIyWlLk6GJQsqaUBKTNV-1">
          <mxGeometry x="290" width="210" height="30" as="geometry" />
        </mxCell>
        <mxCell id="YWEfIGBVEEXT4g351JtW-10" style="edgeStyle=orthogonalEdgeStyle;rounded=0;orthogonalLoop=1;jettySize=auto;html=1;exitX=1;exitY=0.5;exitDx=0;exitDy=0;" edge="1" parent="WIyWlLk6GJQsqaUBKTNV-1" source="YWEfIGBVEEXT4g351JtW-7">
          <mxGeometry relative="1" as="geometry">
            <mxPoint x="180" y="85" as="targetPoint" />
          </mxGeometry>
        </mxCell>
        <mxCell id="YWEfIGBVEEXT4g351JtW-7" value="EVENTS" style="rhombus;whiteSpace=wrap;html=1;" vertex="1" parent="WIyWlLk6GJQsqaUBKTNV-1">
          <mxGeometry x="80" y="70" width="80" height="30" as="geometry" />
        </mxCell>
        <mxCell id="YWEfIGBVEEXT4g351JtW-12" value="PR created, pul requet,new issue, PR merged, new contributer" style="ellipse;whiteSpace=wrap;html=1;aspect=fixed;" vertex="1" parent="WIyWlLk6GJQsqaUBKTNV-1">
          <mxGeometry x="180" y="40" width="120" height="120" as="geometry" />
        </mxCell>
        <mxCell id="YWEfIGBVEEXT4g351JtW-13" value="Trigger WorkFlow" style="swimlane;fontStyle=0;childLayout=stackLayout;horizontal=1;startSize=30;horizontalStack=0;resizeParent=1;resizeParentMax=0;resizeLast=0;collapsible=1;marginBottom=0;whiteSpace=wrap;html=1;" vertex="1" parent="WIyWlLk6GJQsqaUBKTNV-1">
          <mxGeometry x="320" y="70" width="140" height="93" as="geometry" />
        </mxCell>
        <mxCell id="YWEfIGBVEEXT4g351JtW-14" value="Sort" style="text;strokeColor=none;fillColor=none;align=left;verticalAlign=middle;spacingLeft=4;spacingRight=4;overflow=hidden;points=[[0,0.5],[1,0.5]];portConstraint=eastwest;rotatable=0;whiteSpace=wrap;html=1;" vertex="1" parent="YWEfIGBVEEXT4g351JtW-13">
          <mxGeometry y="30" width="140" height="17" as="geometry" />
        </mxCell>
        <mxCell id="YWEfIGBVEEXT4g351JtW-15" value="Label" style="text;strokeColor=none;fillColor=none;align=left;verticalAlign=middle;spacingLeft=4;spacingRight=4;overflow=hidden;points=[[0,0.5],[1,0.5]];portConstraint=eastwest;rotatable=0;whiteSpace=wrap;html=1;" vertex="1" parent="YWEfIGBVEEXT4g351JtW-13">
          <mxGeometry y="47" width="140" height="16" as="geometry" />
        </mxCell>
        <mxCell id="YWEfIGBVEEXT4g351JtW-16" value="Assign&lt;div&gt;Reproduce&lt;/div&gt;" style="text;strokeColor=none;fillColor=none;align=left;verticalAlign=middle;spacingLeft=4;spacingRight=4;overflow=hidden;points=[[0,0.5],[1,0.5]];portConstraint=eastwest;rotatable=0;whiteSpace=wrap;html=1;" vertex="1" parent="YWEfIGBVEEXT4g351JtW-13">
          <mxGeometry y="63" width="140" height="30" as="geometry" />
        </mxCell>
        <mxCell id="YWEfIGBVEEXT4g351JtW-17" value="WorkFlow" style="text;html=1;align=center;verticalAlign=middle;whiteSpace=wrap;rounded=0;" vertex="1" parent="WIyWlLk6GJQsqaUBKTNV-1">
          <mxGeometry x="350" y="50" width="60" height="20" as="geometry" />
        </mxCell>
        <mxCell id="YWEfIGBVEEXT4g351JtW-19" style="edgeStyle=orthogonalEdgeStyle;rounded=0;orthogonalLoop=1;jettySize=auto;html=1;exitX=1;exitY=0.5;exitDx=0;exitDy=0;entryX=-0.021;entryY=0;entryDx=0;entryDy=0;entryPerimeter=0;" edge="1" parent="WIyWlLk6GJQsqaUBKTNV-1" source="YWEfIGBVEEXT4g351JtW-12" target="YWEfIGBVEEXT4g351JtW-14">
          <mxGeometry relative="1" as="geometry" />
        </mxCell>
      </root>
    </mxGraphModel>
  </diagram>
</mxfile>
